<?xml version="1.0" standalone="no"?><!DOCTYPE svg PUBLIC "-//W3C//DTD SVG 1.1//EN" "http://www.w3.org/Graphics/SVG/1.1/DTD/svg11.dtd"><svg t="1643374753419" class="icon" viewBox="0 0 1024 1024" version="1.1" xmlns="http://www.w3.org/2000/svg" p-id="23956" xmlns:xlink="http://www.w3.org/1999/xlink" width="128" height="128"><defs><style type="text/css"></style></defs><path d="M0 512a512 512 0 1 0 1024 0A512 512 0 1 0 0 512z" fill="#119E95" p-id="23957"></path><path d="M443.057 409.6l41.569-41.568-25.347-25.347 62.86-62.86-6.084-6.082c-20.277-20.278-59.817-13.18-106.455 18.25l-9.125-9.126-130.788 129.775 13.18 13.18-10.138 10.138-2.028-2.027c-6.083-6.083-16.222-5.07-23.319 1.014l-23.319 23.318c-6.083 6.084-7.097 17.236-1.013 23.32l62.859 62.859c6.083 6.083 16.222 5.069 23.319-1.014l23.319-23.32c6.083-6.082 7.097-17.235 1.013-23.318l-2.027-2.028 10.138-10.138 13.18 13.18 36.5-36.5 62.859 62.86 51.707-51.707-62.86-62.859z m88.206 215.952l126.733 134.844c3.042 3.042 10.139 2.028 15.208-3.042l66.915-66.914c5.07-5.07 6.083-12.167 2.028-15.208l-134.844-125.72-9.125 9.126-66.915 66.914z" fill="#FFFFFF" p-id="23958"></path><path d="M711.73 415.683l-58.803-58.804 78.067-78.067c-14.194-10.139-31.43-14.194-48.665-14.194-22.305 0-44.61 8.11-61.846 25.346l-35.485 34.472c-29.402 29.402-33.457 76.04-11.152 109.497l-50.694 50.693-203.786 203.786c-16.221 16.222-16.221 42.582 0 58.804 8.111 8.11 19.264 12.166 29.402 12.166 11.153 0 21.291-4.055 29.402-12.166l204.8-204.8 50.693-50.693c14.194 10.138 31.43 14.194 48.666 14.194 22.305 0 44.61-8.111 61.845-25.347l34.472-34.471c29.402-29.402 33.457-76.04 11.152-109.497l-78.067 79.081zM363.977 733.022c-4.055 4.055-9.125 6.083-15.208 6.083-5.069 0-11.152-2.028-15.208-6.083-8.11-8.111-8.11-21.291 0-29.402 4.056-4.056 9.125-6.083 15.208-6.083 5.07 0 11.153 2.027 15.208 6.083 8.111 8.11 8.111 21.29 0 29.402z" fill="#FFFFFF" p-id="23959"></path></svg>