<?xml version="1.0" standalone="no"?><!DOCTYPE svg PUBLIC "-//W3C//DTD SVG 1.1//EN" "http://www.w3.org/Graphics/SVG/1.1/DTD/svg11.dtd"><svg t="1650352055161" class="icon" viewBox="0 0 1024 1024" version="1.1" xmlns="http://www.w3.org/2000/svg" p-id="6481" xmlns:xlink="http://www.w3.org/1999/xlink" width="128" height="128"><defs><style type="text/css">@font-face { font-family: feedback-iconfont; src: url("//at.alicdn.com/t/font_1031158_u69w8yhxdu.woff2?t=1630033759944") format("woff2"), url("//at.alicdn.com/t/font_1031158_u69w8yhxdu.woff?t=1630033759944") format("woff"), url("//at.alicdn.com/t/font_1031158_u69w8yhxdu.ttf?t=1630033759944") format("truetype"); }
</style></defs><path d="M851.456 259.584l-1.536-3.072-121.856-214.528c-14.336-25.6-41.984-41.472-71.168-41.472-14.336 0-28.16 3.584-40.448 10.752l-408.576 232.96c-6.656 3.584-12.288 8.192-18.432 14.848l-11.264 12.288h667.648l10.752-1.536-5.12-10.24z" fill="#CB522E" p-id="6482"></path><path d="M720.384 514.048h252.416v-153.6c0-27.648-12.288-54.272-31.744-73.728-18.432-19.456-46.08-30.72-72.704-30.72h-33.792l5.12 10.24c16.384 32.256 4.608 71.68-26.624 89.088l-408.576 232.448c-10.24 5.632-22.016 8.704-33.28 8.704-24.576 0-47.104-12.8-58.88-34.304l-121.856-214.528c-14.848-26.112-10.752-58.88 10.24-80.896l11.264-12.288H148.48c-27.648 0-50.176 11.264-69.12 30.72-19.968 18.944-27.136 45.568-27.136 73.216v540.16c0 13.824-1.024 26.624 4.608 40.448 6.144 11.776 9.216 21.504 19.456 29.696 20.48 19.456 47.616 27.648 73.216 27.648v-3.072h722.944c13.824 0 27.136 1.536 39.936-3.584 12.288-5.12 24.064-10.24 33.792-20.48 8.192-9.728 14.848-19.968 19.968-31.744 5.12-12.8 8.192-25.6 8.192-39.936V686.08h-251.904c-18.944 0-36.864 0.512-52.736-9.216-11.264-7.168-19.968-14.848-25.6-27.648-7.168-14.336-10.752-29.696-10.752-46.08-0.512-23.552 9.728-46.592 26.624-63.488 14.336-16.384 37.376-25.6 60.416-25.6z" fill="#5161C4" p-id="6483"></path><path d="M851.968 261.12l-2.048-3.072h-658.432l-2.048 1.536c-25.088 26.112-30.208 64.512-12.288 95.744l121.856 214.528c14.336 25.6 41.984 41.472 71.168 41.472 14.336 0 28.16-3.584 40.448-10.752l408.576-232.448c37.888-20.992 52.224-68.096 32.768-107.008z" fill="#3E3E9B" p-id="6484"></path><path d="M671.744 604.16c0.512-26.624 23.04-47.616 49.664-47.104 26.624 0.512 47.616 23.04 47.104 49.664-0.512 26.624-23.04 47.616-49.664 47.104-12.288-0.512-24.064-5.632-32.768-14.336-9.728-9.216-14.848-22.016-14.336-35.328z" fill="#CB522E" p-id="6485"></path></svg>