<?xml version="1.0" standalone="no"?><!DOCTYPE svg PUBLIC "-//W3C//DTD SVG 1.1//EN" "http://www.w3.org/Graphics/SVG/1.1/DTD/svg11.dtd"><svg t="1638234193520" class="icon" viewBox="0 0 1024 1024" version="1.1" xmlns="http://www.w3.org/2000/svg" p-id="10855" xmlns:xlink="http://www.w3.org/1999/xlink" width="128" height="128"><defs><style type="text/css"></style></defs><path d="M866 960H158a62.07 62.07 0 0 1-62-62V126a62.07 62.07 0 0 1 62-62h708a62.07 62.07 0 0 1 62 62v772a62.07 62.07 0 0 1-62 62z m-706-64h704V128H160z" fill="#ffffff" p-id="10856"></path><path d="M212 576m32 0l536 0q32 0 32 32l0 0q0 32-32 32l-536 0q-32 0-32-32l0 0q0-32 32-32Z" fill="#ffffff" p-id="10857"></path><path d="M212 704m32 0l364 0q32 0 32 32l0 0q0 32-32 32l-364 0q-32 0-32-32l0 0q0-32 32-32Z" fill="#ffffff" p-id="10858"></path><path d="M212 448m32 0l216 0q32 0 32 32l0 0q0 32-32 32l-216 0q-32 0-32-32l0 0q0-32 32-32Z" fill="#ffffff" p-id="10859"></path><path d="M212 320m32 0l216 0q32 0 32 32l0 0q0 32-32 32l-216 0q-32 0-32-32l0 0q0-32 32-32Z" fill="#ffffff" p-id="10860"></path><path d="M212 192m32 0l216 0q32 0 32 32l0 0q0 32-32 32l-216 0q-32 0-32-32l0 0q0-32 32-32Z" fill="#ffffff" p-id="10861"></path><path d="M770 512H566a42 42 0 0 1-42-42V234a42 42 0 0 1 42-42h204a42 42 0 0 1 42 42v236a42 42 0 0 1-42 42z m-182-64h160V256H588z" fill="#ffffff" p-id="10862"></path></svg>