<?xml version="1.0" standalone="no"?><!DOCTYPE svg PUBLIC "-//W3C//DTD SVG 1.1//EN" "http://www.w3.org/Graphics/SVG/1.1/DTD/svg11.dtd"><svg t="1638233150755" class="icon" viewBox="0 0 1073 1024" version="1.1" xmlns="http://www.w3.org/2000/svg" p-id="2450" xmlns:xlink="http://www.w3.org/1999/xlink" width="134.125" height="128"><defs><style type="text/css"></style></defs><path d="M1058.644523 419.778022a17.250496 17.250496 0 0 1 14.822028 17.023201V1006.916961a16.508797 16.508797 0 0 1-2.751466 7.775882 13.039557 13.039557 0 0 1-6.304446 4.785158l-9.271245 3.588869a13.924811 13.924811 0 0 1-5.036379 0.933106H23.363536a13.924811 13.924811 0 0 1-5.036379-0.933106l-9.259282-3.588869a13.063482 13.063482 0 0 1-6.316409-4.785158 16.508797 16.508797 0 0 1-2.751466-7.775882V102.103318c0-9.390873 7.967289-17.011238 17.788826-17.011238L666.33331 0.119629a13.434332 13.434332 0 0 1 1.794434-0.119629h6.794925a13.075445 13.075445 0 0 1 13.039557 14.187995v325.785548a14.080329 14.080329 0 0 0 11.544195 13.853033z m-800.078488 530.410885h99.662887a27.275403 27.275403 0 0 0 27.275403-27.275403v-90.116495a27.26344 27.26344 0 0 0-27.275403-27.263441h-99.662887a27.26344 27.26344 0 0 0-27.26344 27.263441v90.116495a27.26344 27.26344 0 0 0 27.26344 27.275403z m459.638392 0h99.662887a27.26344 27.26344 0 0 0 27.26344-27.275403v-90.116495a27.26344 27.26344 0 0 0-27.26344-27.263441h-99.662887a27.26344 27.26344 0 0 0-27.275403 27.263441v90.116495a27.275403 27.275403 0 0 0 27.275403 27.275403zM258.566035 680.688785h99.662887a27.26344 27.26344 0 0 0 27.275403-27.26344v-92.927776a27.275403 27.275403 0 0 0-27.275403-27.26344h-99.662887a27.26344 27.26344 0 0 0-27.26344 27.26344v92.963665A27.26344 27.26344 0 0 0 258.566035 680.688785z m0-269.45227h99.662887a27.26344 27.26344 0 0 0 27.275403-27.227552v-92.963665a27.26344 27.26344 0 0 0-27.275403-27.26344h-99.662887a27.26344 27.26344 0 0 0-27.26344 27.26344V384.008963a27.26344 27.26344 0 0 0 27.26344 27.26344zM718.204427 680.688785h99.662887a27.26344 27.26344 0 0 0 27.26344-27.26344v-92.927776a27.26344 27.26344 0 0 0-27.26344-27.26344h-99.662887a27.275403 27.275403 0 0 0-27.275403 27.26344v92.963665a27.26344 27.26344 0 0 0 27.275403 27.227551z" p-id="2451"></path></svg>